<svg width="39" height="32" viewBox="0 0 39 32" fill="none" xmlns="http://www.w3.org/2000/svg">
<path d="M4.77273 31.9215H25.2273C26.495 31.9179 27.7096 31.4115 28.6044 30.5134C29.4992 29.6152 30.0011 28.3988 30 27.1311V16.8533C30 16.4917 29.8563 16.1448 29.6006 15.8891C29.3449 15.6334 28.998 15.4897 28.6364 15.4897C28.2747 15.4897 27.9279 15.6334 27.6721 15.8891C27.4164 16.1448 27.2727 16.4917 27.2727 16.8533V27.1311C27.2745 27.6757 27.0602 28.1989 26.6767 28.5857C26.2932 28.9725 25.7719 29.1913 25.2273 29.1942H4.77273C4.22806 29.1913 3.70678 28.9725 3.3233 28.5857C2.93982 28.1989 2.72546 27.6757 2.72727 27.1311V6.71196C2.72546 6.16729 2.93982 5.64414 3.3233 5.25733C3.70678 4.87053 4.22806 4.65167 4.77273 4.64878H15C15.3617 4.64878 15.7085 4.50511 15.9642 4.24938C16.22 3.99365 16.3636 3.6468 16.3636 3.28515C16.3636 2.92349 16.22 2.57664 15.9642 2.32091C15.7085 2.06518 15.3617 1.92151 15 1.92151H4.77273C3.50496 1.92512 2.29041 2.43155 1.39563 3.32966C0.500838 4.22777 -0.00108694 5.44419 1.76742e-06 6.71196V27.1311C-0.00108694 28.3988 0.500838 29.6152 1.39563 30.5134C2.29041 31.4115 3.50496 31.9179 4.77273 31.9215Z" fill="#A18AFF"/>
<path d="M10.2344 20.535L8.68799 27.6262C8.61799 27.9479 8.62995 28.282 8.72277 28.5978C8.81559 28.9136 8.98628 29.201 9.21912 29.4334C9.45517 29.66 9.7423 29.8263 10.0562 29.9181C10.3701 30.01 10.7014 30.0248 11.0222 29.9612L18.0897 28.4091C18.4567 28.3285 18.7927 28.1439 19.0579 27.8774L36.9206 9.99424C37.4667 9.44762 37.8999 8.79865 38.1954 8.08441C38.4909 7.37016 38.6431 6.60462 38.6431 5.83151C38.6431 5.05841 38.4909 4.29287 38.1954 3.57862C37.8999 2.86437 37.4667 2.21541 36.9206 1.66879C35.801 0.597711 34.3121 0 32.7636 0C31.2151 0 29.7262 0.597711 28.6066 1.66879L10.7714 19.5696C10.5037 19.8332 10.3173 20.1683 10.2344 20.535ZM31.3779 4.44525C31.7508 4.08762 32.2472 3.88798 32.7636 3.88798C33.28 3.88798 33.7764 4.08762 34.1493 4.44525C34.5118 4.81537 34.7149 5.3131 34.7149 5.83151C34.7149 6.34993 34.5118 6.84766 34.1493 7.21778L32.7636 8.60503L29.9923 5.83053L31.3779 4.44525ZM13.9347 21.936L27.2112 8.61092L29.955 11.3717L16.6727 24.7007L13.1546 25.4737L13.9347 21.936Z" fill="#A18AFF"/>
</svg>
