<svg width="30" height="30" viewBox="0 0 30 30" fill="none" xmlns="http://www.w3.org/2000/svg">
<path d="M29.5166 10.4833L19.5166 0.483333C19.3631 0.333415 19.182 0.214572 18.9833 0.133333C18.7767 0.0493615 18.5563 0.00416346 18.3333 0H5C3.67391 0 2.40215 0.526784 1.46446 1.46447C0.526784 2.40215 0 3.67392 0 5V25C0 26.3261 0.526784 27.5979 1.46446 28.5355C2.40215 29.4732 3.67391 30 5 30H25C26.3261 30 27.5978 29.4732 28.5355 28.5355C29.4732 27.5979 30 26.3261 30 25V11.6667C30.0012 11.4473 29.9592 11.2299 29.8763 11.0268C29.7933 10.8238 29.6711 10.6391 29.5166 10.4833ZM9.99999 3.33333H16.6667V6.66667H9.99999V3.33333ZM20 26.6667H9.99999V21.6667C9.99999 21.2246 10.1756 20.8007 10.4881 20.4882C10.8007 20.1756 11.2246 20 11.6667 20H18.3333C18.7753 20 19.1993 20.1756 19.5118 20.4882C19.8244 20.8007 20 21.2246 20 21.6667V26.6667ZM26.6666 25C26.6666 25.442 26.491 25.866 26.1785 26.1785C25.8659 26.4911 25.442 26.6667 25 26.6667H23.3333V21.6667C23.3333 20.3406 22.8065 19.0688 21.8688 18.1311C20.9312 17.1934 19.6594 16.6667 18.3333 16.6667H11.6667C10.3406 16.6667 9.06881 17.1934 8.13113 18.1311C7.19344 19.0688 6.66666 20.3406 6.66666 21.6667V26.6667H5C4.55797 26.6667 4.13405 26.4911 3.82149 26.1785C3.50892 25.866 3.33333 25.442 3.33333 25V5C3.33333 4.55797 3.50892 4.13405 3.82149 3.82149C4.13405 3.50893 4.55797 3.33333 5 3.33333H6.66666V8.33333C6.66666 8.77536 6.84226 9.19928 7.15482 9.51184C7.46738 9.8244 7.8913 10 8.33333 10H18.3333C18.7753 10 19.1993 9.8244 19.5118 9.51184C19.8244 9.19928 20 8.77536 20 8.33333V5.68333L26.6666 12.35V25Z" fill="#A18AFF"/>
</svg>
