<svg width="30" height="30" viewBox="0 0 30 30" fill="none" xmlns="http://www.w3.org/2000/svg">
<path d="M29.9909 2.09706C29.991 1.81401 29.9274 1.53595 29.8064 1.29123C29.6854 1.0465 29.5114 0.843839 29.3021 0.703883C29.0928 0.563926 28.8557 0.491675 28.6149 0.494487C28.3741 0.497299 28.1383 0.575073 27.9314 0.71989C27.1335 1.27818 26.2745 1.70573 25.3781 1.99069C24.098 0.699429 22.4654 -0.00716688 20.7786 5.48131e-05C18.9282 0.00255896 17.151 0.850339 15.8223 2.36438C14.4936 3.87842 13.7175 5.9402 13.6578 8.11437C10.0098 7.43051 6.70353 5.19222 4.36947 1.82632C4.22883 1.62574 4.04923 1.46786 3.8458 1.36599C3.64238 1.26412 3.4211 1.22125 3.20062 1.241C2.98028 1.26233 2.76766 1.34643 2.58117 1.48604C2.39468 1.62565 2.23993 1.81655 2.13029 2.04226C1.568 3.19577 1.24506 4.48891 1.1877 5.81668C1.13033 7.14444 1.34016 8.46939 1.80013 9.68394L1.79747 9.68706C1.59074 9.83675 1.42013 10.0463 1.30196 10.2956C1.18378 10.545 1.122 10.8258 1.12252 11.1112C1.12002 11.3466 1.13203 11.582 1.15847 11.8154C1.2977 13.8318 2.05789 15.7192 3.29647 17.1238C3.21245 17.3119 3.16117 17.5179 3.14562 17.7296C3.13008 17.9414 3.15058 18.1546 3.20594 18.3569C3.74593 20.3347 4.89427 22.0044 6.42626 23.0393C4.86981 23.7468 3.18921 23.9935 1.53255 23.7576C1.22593 23.7124 0.915329 23.791 0.651709 23.9806C0.388089 24.1701 0.187099 24.4594 0.0817069 24.8009C-0.0236848 25.1424 -0.0272197 25.5158 0.0716817 25.86C0.170583 26.2042 0.366049 26.4986 0.626015 26.695C3.47525 28.8523 6.79273 29.9992 10.1818 29.9987C14.025 30.0495 17.7748 28.6058 20.8479 25.8922C23.9209 23.1785 26.1449 19.3471 27.1739 14.9938C27.6552 13.0974 27.9009 11.1293 27.9035 9.15032C27.9035 9.04546 27.9035 8.93749 27.9021 8.82951C28.6139 7.92718 29.1652 6.86691 29.5239 5.71085C29.8826 4.55478 30.0413 3.32618 29.9909 2.09706ZM25.4832 7.2442C25.2581 7.55725 25.1441 7.96021 25.165 8.36941C25.1784 8.63383 25.177 8.89984 25.177 9.15032C25.1742 10.8226 24.9657 12.4856 24.558 14.0878C23.7176 17.7918 21.8441 21.0572 19.2375 23.3609C16.6309 25.6646 13.4421 26.8734 10.1818 26.7937C9.01063 26.7941 7.8435 26.6323 6.70455 26.3117C8.15692 25.7614 9.51492 24.9132 10.7156 23.8062C10.9368 23.6015 11.0986 23.3213 11.179 23.0042C11.2593 22.6871 11.2542 22.3485 11.1644 22.035C11.0745 21.7214 10.9043 21.4482 10.6772 21.2528C10.45 21.0575 10.1769 20.9496 9.89552 20.9439C8.76246 20.9231 7.68048 20.3862 6.87755 19.4462C7.08124 19.4008 7.2836 19.3445 7.48461 19.2772C7.77908 19.1786 8.03677 18.9665 8.21619 18.6748C8.39562 18.3832 8.48633 18.0291 8.47372 17.6695C8.46112 17.3099 8.34593 16.9657 8.1467 16.6924C7.94748 16.4191 7.67581 16.2326 7.37545 16.1629C6.71775 16.0102 6.09887 15.6813 5.5669 15.2017C5.03493 14.7221 4.60422 14.1047 4.30823 13.3976C4.5546 13.4371 4.80254 13.4617 5.05107 13.4712C5.34632 13.4764 5.63533 13.3711 5.87632 13.1705C6.11731 12.97 6.29779 12.6845 6.39165 12.3554C6.48159 12.0233 6.47696 11.6657 6.37847 11.337C6.27997 11.0083 6.09297 10.7263 5.84583 10.5337C5.24622 10.0642 4.75505 9.42708 4.41631 8.67956C4.07757 7.93204 3.90184 7.09742 3.90486 6.25047C3.90486 6.14406 3.90752 6.03764 3.91285 5.93278C6.96815 9.28245 10.9311 11.2571 15.1034 11.5087C15.314 11.5185 15.5238 11.4719 15.7168 11.3724C15.9098 11.2729 16.0811 11.1231 16.2177 10.9344C16.3529 10.7439 16.4486 10.519 16.4974 10.2776C16.5461 10.0362 16.5465 9.78477 16.4985 9.54314C16.4206 9.16072 16.3808 8.76892 16.38 8.37568C16.3813 7.00478 16.8451 5.69045 17.6697 4.72108C18.4943 3.75171 19.6124 3.20649 20.7786 3.20504C21.3785 3.20315 21.9724 3.3475 22.5225 3.62898C23.0726 3.91046 23.5672 4.32296 23.9749 4.84043C24.1321 5.03927 24.33 5.18752 24.5497 5.27108C24.7695 5.35464 25.0037 5.37072 25.2302 5.3178C25.7902 5.18969 26.3422 5.01715 26.8823 4.80137C26.5139 5.68752 26.0431 6.50957 25.4832 7.2442Z" fill="#A18AFF"/>
</svg>
