<svg width="30" height="30" viewBox="0 0 30 30" fill="none" xmlns="http://www.w3.org/2000/svg">
<path d="M15 30C12.0333 30 9.13319 29.1203 6.66645 27.472C4.19971 25.8238 2.27713 23.4811 1.14181 20.7403C0.00649925 17.9994 -0.290551 14.9834 0.288227 12.0736C0.867006 9.16394 2.29562 6.49119 4.3934 4.3934C6.49119 2.29562 9.16394 0.867006 12.0736 0.288227C14.9834 -0.290551 17.9994 0.00649925 20.7403 1.14181C23.4811 2.27713 25.8238 4.19971 27.472 6.66645C29.1203 9.13319 30 12.0333 30 15C30 18.9782 28.4196 22.7936 25.6066 25.6066C22.7936 28.4196 18.9782 30 15 30ZM15 2.14286C12.4571 2.14286 9.9713 2.89692 7.85696 4.30968C5.74261 5.72244 4.09468 7.73045 3.12155 10.0798C2.14843 12.4291 1.89381 15.0143 2.38991 17.5083C2.88601 20.0023 4.11053 22.2933 5.90863 24.0914C7.70674 25.8895 9.99766 27.114 12.4917 27.6101C14.9857 28.1062 17.5709 27.8516 19.9202 26.8784C22.2696 25.9053 24.2776 24.2574 25.6903 22.143C27.1031 20.0287 27.8571 17.5429 27.8571 15C27.8571 11.5901 26.5026 8.31981 24.0914 5.90863C21.6802 3.49745 18.4099 2.14286 15 2.14286ZM13.5643 20.0893L23.2071 11.5179L21.7929 9.91072L12.8571 17.8179L8.26072 13.1679L6.73929 14.6893L12.0964 20.0464C12.1965 20.1457 12.3153 20.2243 12.4458 20.2776C12.5764 20.3309 12.7161 20.358 12.8571 20.3571C13.1176 20.3568 13.369 20.2615 13.5643 20.0893Z" fill="#A18AFF"/>
</svg>
